<?xml version="1.0" standalone="no"?>
<!DOCTYPE svg PUBLIC "-//W3C//DTD SVG 20010904//EN"
 "http://www.w3.org/TR/2001/REC-SVG-20010904/DTD/svg10.dtd">
<svg version="1.0" xmlns="http://www.w3.org/2000/svg"
 width="1412.000000pt" height="638.000000pt" viewBox="0 0 1412.000000 638.000000"
 preserveAspectRatio="xMidYMid meet">

<g transform="translate(0.000000,638.000000) scale(0.100000,-0.100000)"
fill="#000000" stroke="none">
<path d="M1934 6101 c-182 -133 -481 -391 -567 -488 -17 -20 -17 -22 5 -64 22
-43 23 -52 23 -314 0 -472 -6 -686 -18 -708 -9 -15 -9 -21 1 -24 6 -3 12 -12
12 -21 0 -12 -5 -10 -17 8 -9 14 -18 27 -19 29 -1 1 -9 -1 -16 -5 -7 -5 -20
-9 -28 -9 -45 -4 -49 -6 -44 -20 4 -8 1 -15 -6 -15 -6 0 -9 -4 -5 -10 3 -5 12
-7 20 -3 20 7 19 -11 -1 -28 -18 -15 -123 -14 -138 1 -6 6 -18 10 -28 10 -11
0 -18 7 -18 19 0 11 -5 23 -11 26 -5 4 -73 8 -149 10 -76 2 -143 6 -149 10 -6
3 -11 15 -11 25 0 10 -4 21 -8 24 -18 11 -92 24 -86 15 9 -15 -23 -10 -36 6
-7 9 -29 15 -55 15 -42 0 -43 1 -54 44 -6 25 -11 57 -11 73 -1 23 -2 25 -10
12 -12 -21 -24 -2825 -13 -3039 l8 -155 85 1 c58 0 110 8 163 24 66 20 80 28
99 58 l21 35 -21 18 c-12 9 -22 23 -22 29 0 9 -3 10 -14 1 -17 -14 -77 14 -83
40 -3 12 -14 19 -28 19 -18 0 -26 8 -35 35 -6 19 -17 35 -25 35 -7 0 -18 7
-25 15 -10 12 -10 18 1 31 11 13 10 17 -3 25 -10 5 -14 17 -11 29 4 14 0 20
-11 20 -18 0 -20 12 -7 38 5 9 14 31 21 47 6 17 18 43 26 58 8 16 14 35 14 43
0 8 4 14 8 14 5 0 17 19 28 43 17 38 128 215 143 227 3 3 24 28 45 55 72 91
309 325 320 316 21 -17 171 -60 246 -71 248 -37 552 -28 748 20 353 89 560
207 827 475 165 166 429 445 434 459 2 6 -15 -8 -36 -31 -31 -32 -45 -41 -63
-36 -20 5 -21 3 -15 -18 4 -17 3 -20 -3 -10 -11 15 -36 5 -29 -13 3 -6 -6 -12
-20 -12 -21 -2 -22 0 -11 15 7 9 19 20 26 24 15 10 16 37 1 37 -7 0 -18 -8
-25 -17 -9 -12 -13 -14 -14 -5 0 16 24 42 39 42 6 0 11 -4 11 -10 0 -5 7 -10
15 -10 22 0 19 8 -15 42 -22 22 -37 28 -53 24 -17 -4 -27 2 -45 29 -15 20 -35
36 -54 40 -17 4 -34 17 -40 31 -6 13 -16 24 -22 24 -5 0 -22 12 -37 26 -15 15
-42 27 -60 29 -41 4 -93 23 -66 24 26 1 21 21 -6 21 -12 0 -39 11 -59 25 -20
14 -43 25 -50 25 -19 0 -68 23 -68 33 0 4 -7 7 -15 7 -8 0 -12 6 -10 13 6 15
-10 34 -61 75 -47 36 -54 38 -54 17 0 -8 5 -15 11 -15 6 0 22 -9 36 -20 23
-18 24 -20 8 -27 -13 -4 -25 2 -42 21 -14 17 -30 26 -39 22 -34 -13 16 41 278
295 277 270 395 380 436 407 20 13 22 21 21 111 -1 57 -4 86 -8 71 l-7 -25 -8
22 c-4 13 -18 26 -32 29 -15 4 -32 21 -43 43 -39 77 -57 104 -102 150 -9 9
-22 31 -30 49 -8 17 -19 32 -24 32 -14 0 -75 63 -75 77 0 6 -9 13 -20 16 -11
3 -22 13 -26 24 -3 10 -10 25 -15 33 -5 8 -14 26 -19 38 -6 13 -19 26 -30 29
-13 3 -20 14 -20 28 0 17 -7 25 -22 28 -23 4 -23 4 2 14 27 12 20 18 -30 26
-14 2 -6 5 20 6 60 2 82 16 40 25 -64 12 -192 1 -333 -30 -65 -15 -107 -12
-107 6 0 30 -235 342 -344 457 -43 46 -86 83 -96 83 -9 0 -35 -13 -56 -29z
m823 -537 c-3 -3 -12 -4 -19 -1 -8 3 -5 6 6 6 11 1 17 -2 13 -5z m-702 -849
c80 -21 148 -60 217 -124 105 -96 150 -201 152 -351 2 -209 -68 -330 -339
-580 -44 -40 -214 -203 -377 -362 -163 -159 -298 -285 -300 -281 -2 4 -1 307
2 673 l5 665 28 65 c66 150 181 250 337 295 63 18 204 18 275 0z m-665 -307
c0 -4 -7 -5 -15 -2 -8 4 -15 16 -15 27 0 20 0 20 15 1 8 -10 15 -22 15 -26z"/>
<path d="M3138 5583 c7 -3 16 -2 19 1 4 3 -2 6 -13 5 -11 0 -14 -3 -6 -6z"/>
<path d="M3299 5108 c-2 -18 -1 -49 2 -68 5 -27 7 -19 8 33 1 71 -4 89 -10 35z"/>
<path d="M3460 3679 c0 -5 5 -7 10 -4 6 3 10 8 10 11 0 2 -4 4 -10 4 -5 0 -10
-5 -10 -11z"/>
<path d="M3804 3236 c-78 -18 -168 -54 -242 -97 -81 -49 -231 -200 -280 -284
-139 -238 -147 -543 -21 -786 191 -366 621 -530 1009 -385 113 42 212 109 302
205 154 165 218 327 218 556 0 236 -77 413 -253 582 -99 95 -191 151 -307 189
-72 23 -106 27 -225 30 -95 3 -160 -1 -201 -10z m322 -518 c159 -79 215 -299
115 -448 -113 -169 -350 -187 -488 -38 -111 121 -109 309 5 425 97 100 243
124 368 61z"/>
<path d="M4920 2440 l0 -810 750 0 750 0 0 250 0 250 -500 0 -500 0 0 560 0
560 -250 0 -250 0 0 -810z"/>
<path d="M6070 3245 c0 -2 124 -194 275 -426 l275 -422 0 -383 0 -384 250 0
250 0 0 380 0 379 263 403 c145 222 271 415 281 431 l18 27 -300 0 -301 0
-102 -164 c-57 -91 -106 -163 -109 -161 -3 2 -50 76 -105 164 l-100 160 -297
1 c-164 0 -298 -2 -298 -5z"/>
<path d="M7810 2440 l0 -810 250 0 250 0 2 272 3 272 184 -271 c180 -264 185
-270 201 -249 9 11 93 133 186 270 l169 249 3 -271 2 -272 250 0 250 0 0 810
0 810 -252 0 -253 -1 -183 -269 c-101 -149 -186 -268 -190 -266 -4 2 -88 124
-187 270 l-180 265 -252 1 -253 0 0 -810z"/>
<path d="M10225 3238 c-3 -7 -32 -92 -64 -188 -32 -96 -154 -455 -270 -797
l-210 -623 262 0 263 0 33 100 32 100 284 0 284 0 32 -100 33 -100 263 0 262
0 -210 623 c-116 342 -239 705 -273 807 l-63 185 -327 3 c-256 2 -328 0 -331
-10z m409 -804 c41 -121 77 -227 81 -236 7 -17 -5 -18 -160 -18 -129 0 -166 3
-162 13 3 6 40 115 82 240 42 126 79 226 81 224 3 -2 38 -103 78 -223z"/>
<path d="M11570 3245 c0 -3 108 -176 239 -385 132 -208 245 -388 251 -399 10
-19 -15 -63 -211 -374 -122 -193 -238 -376 -256 -405 l-34 -52 302 2 302 3
101 162 c56 89 104 162 107 163 4 0 53 -74 110 -165 l104 -165 298 0 c163 0
297 2 297 4 0 2 -112 182 -250 400 -137 218 -251 400 -252 404 -2 4 107 183
242 396 135 214 249 395 253 402 7 12 -42 14 -292 14 l-300 0 -102 -164 c-57
-91 -106 -163 -109 -161 -3 2 -50 76 -105 164 l-100 160 -297 1 c-164 0 -298
-2 -298 -5z"/>
<path d="M885 1610 c-3 -6 1 -7 9 -4 18 7 21 14 7 14 -6 0 -13 -4 -16 -10z"/>
</g>
</svg>
