<?xml version="1.0" standalone="no"?>
<!DOCTYPE svg PUBLIC "-//W3C//DTD SVG 20010904//EN"
 "http://www.w3.org/TR/2001/REC-SVG-20010904/DTD/svg10.dtd">
<svg version="1.0" xmlns="http://www.w3.org/2000/svg"
 width="2048.000000pt" height="2048.000000pt" viewBox="0 0 2048.000000 2048.000000"
 preserveAspectRatio="xMidYMid meet">

<g transform="translate(0.000000,2048.000000) scale(0.100000,-0.100000)"
fill="#000000" stroke="none">
<path d="M9755 20470 c-1906 -99 -3667 -683 -5231 -1735 -1216 -819 -2246
-1892 -3018 -3147 -324 -528 -630 -1151 -849 -1733 -881 -2335 -876 -4924 13
-7265 210 -553 520 -1182 835 -1695 1195 -1946 3012 -3447 5137 -4244 1599
-599 3317 -787 5033 -550 2261 312 4384 1403 5969 3067 1248 1311 2113 2885
2541 4627 424 1722 389 3568 -100 5270 -869 3028 -3105 5504 -6031 6680 -984
396 -2005 630 -3094 710 -254 19 -959 27 -1205 15z m-375 -6512 c789 -1150
1449 -2110 1466 -2135 l31 -44 1837 2136 1837 2135 501 0 c476 0 500 -1 486
-17 -8 -10 -956 -1113 -2107 -2450 -1150 -1338 -2094 -2439 -2097 -2447 -3 -9
905 -1339 2290 -3356 1263 -1837 2296 -3343 2296 -3345 0 -3 -762 -5 -1692 -4
l-1693 0 -1545 2250 c-850 1238 -1547 2252 -1550 2254 -3 1 -877 -1012 -1943
-2251 l-1939 -2254 -500 0 -500 0 19 24 c10 14 1006 1173 2213 2576 1207 1403
2194 2556 2194 2563 -1 7 -996 1460 -2213 3230 -1216 1770 -2211 3220 -2211
3222 0 3 762 5 1693 4 l1692 0 1435 -2091z"/>
<path d="M5929 15283 c5 -10 1600 -2293 3544 -5073 l3535 -5055 771 -3 c646
-2 771 0 764 11 -4 8 -1601 2292 -3547 5075 l-3539 5062 -769 0 c-729 0 -768
-1 -759 -17z"/>
</g>
</svg>
